<svg width="42" height="42" viewBox="0 0 42 42" fill="none" xmlns="http://www.w3.org/2000/svg">
<mask id="mask0_209_14" style="mask-type:alpha" maskUnits="userSpaceOnUse" x="7" y="2" width="28" height="38">
<path d="M11.5032 36.0414C11.2803 36.7994 10.9904 37.4904 10.6338 38.1146C10.2771 38.6943 9.89809 39.0287 9.49682 39.1178C8.64968 39.3408 8.00318 39.207 7.55732 38.7166C7.11147 38.2261 6.93312 37.6019 7.02229 36.8439C7.37898 34.1688 7.9586 31.3599 8.76115 28.4172C9.56369 25.4299 10.5 22.465 11.5701 19.5223C12.6401 16.535 13.7994 13.6592 15.0478 10.8949C16.3408 8.08599 17.6561 5.54459 18.9936 3.2707C19.2166 2.91401 19.4618 2.71337 19.7293 2.66879C20.0414 2.57962 20.3089 2.57962 20.5318 2.66879C20.7548 2.49045 21.0223 2.33439 21.3344 2.20063C21.6465 2.06688 21.9586 2 22.2707 2C22.4045 2 22.5382 2.02229 22.672 2.06688C22.8503 2.11146 23.0287 2.24522 23.207 2.46815C23.3853 2.69108 23.586 3.02548 23.8089 3.47134C24.0764 3.87261 24.3885 4.47452 24.7452 5.27707C25.3694 7.55095 26.0828 9.89172 26.8854 12.2994C27.7325 14.707 28.6019 17.1146 29.4936 19.5223C29.6274 19.4777 29.7389 19.4554 29.828 19.4554C29.9618 19.4108 30.0955 19.3662 30.2293 19.3217C30.7197 19.2771 31.2771 19.2994 31.9013 19.3885C32.5255 19.4777 32.949 19.7898 33.172 20.3248C33.4395 20.9936 33.3949 21.5732 33.0382 22.0637C32.6815 22.5541 32.035 23.0446 31.0987 23.535C31.6783 24.9618 32.258 26.3662 32.8376 27.7484C33.4172 29.086 34.0191 30.4013 34.6433 31.6943C34.6879 31.9172 34.7548 32.2739 34.8439 32.7643C34.9331 33.2102 34.9777 33.6783 34.9777 34.1688C35.0223 34.6146 35 35.0382 34.9108 35.4395C34.8217 35.8408 34.6433 36.1083 34.3758 36.242C34.0637 36.3758 33.7293 36.3535 33.3726 36.1752C33.0605 35.9968 32.7484 35.7739 32.4363 35.5064C32.1242 35.1943 31.8344 34.8822 31.5669 34.5701C31.3439 34.2134 31.1656 33.9013 31.0318 33.6338C30.2739 32.1624 29.5382 30.6911 28.8248 29.2197C28.1561 27.7038 27.5096 26.1879 26.8854 24.672C25.0127 25.0287 22.9618 25.3408 20.7325 25.6083C18.5478 25.8758 16.3854 26.0541 14.2452 26.1433C13.7548 27.8376 13.2643 29.5096 12.7739 31.1592C12.328 32.7643 11.9045 34.3917 11.5032 36.0414ZM21 7.95223C21 7.95223 17.1656 17.1369 15.6497 21.7293C18.6369 21.6401 25.2134 20.5924 25.2134 20.5924L21 7.95223Z" fill="black"/>
</mask>
<g mask="url(#mask0_209_14)">
<path fill-rule="evenodd" clip-rule="evenodd" d="M-6.31128 10.7322L-5.02735 8.95449C-3.84219 7.17674 -1.3731 3.62125 1.09599 4.80642C3.56509 5.99158 6.03418 11.9174 8.50327 11.9174C10.9724 11.9174 13.4415 5.99158 15.9105 3.02867C18.3796 0.065761 20.8487 0.0657613 23.3178 1.84351C25.7869 3.62125 28.256 7.17674 30.7251 5.399C33.1942 3.62125 35.6633 -3.48973 38.1324 -2.30457C40.6015 -1.1194 43.0705 8.36191 45.5396 11.9174C48.0087 15.4729 50.4778 13.1026 52.9469 13.1026C55.416 13.1026 57.8851 15.4729 60.3542 17.2506C62.8233 19.0284 65.2924 20.2135 67.7615 16.0655C70.2305 11.9174 72.6996 2.43609 75.1687 -0.52682C77.6378 -3.48973 80.1069 0.065761 82.576 3.02867C85.0451 5.99158 87.5142 8.36191 89.9833 10.1397C92.4524 11.9174 94.9215 13.1026 97.3906 14.8803C99.8596 16.6581 102.329 19.0284 104.798 19.621C107.267 20.2135 109.736 19.0284 111.02 18.4358L112.205 17.8432V24.9542H111.02C109.736 24.9542 107.267 24.9542 104.798 24.9542C102.329 24.9542 99.8596 24.9542 97.3906 24.9542C94.9215 24.9542 92.4524 24.9542 89.9833 24.9542C87.5142 24.9542 85.0451 24.9542 82.576 24.9542C80.1069 24.9542 77.6378 24.9542 75.1687 24.9542C72.6996 24.9542 70.2305 24.9542 67.7615 24.9542C65.2924 24.9542 62.8233 24.9542 60.3542 24.9542C57.8851 24.9542 55.416 24.9542 52.9469 24.9542C50.4778 24.9542 48.0087 24.9542 45.5396 24.9542C43.0705 24.9542 40.6015 24.9542 38.1324 24.9542C35.6633 24.9542 33.1942 24.9542 30.7251 24.9542C28.256 24.9542 25.7869 24.9542 23.3178 24.9542C20.8487 24.9542 18.3796 24.9542 15.9105 24.9542C13.4415 24.9542 10.9724 24.9542 8.50327 24.9542C6.03418 24.9542 3.56509 24.9542 1.09599 24.9542C-1.3731 24.9542 -3.84219 24.9542 -5.02735 24.9542H-6.31128V10.7322Z" fill="#80FFDB"/>
<path fill-rule="evenodd" clip-rule="evenodd" d="M-6.31128 15.044L-5.02735 13.2663C-3.84219 11.4885 -1.3731 7.93302 1.09599 9.11818C3.56509 10.3033 6.03418 16.2292 8.50327 16.2292C10.9724 16.2292 13.4415 10.3033 15.9105 7.34044C18.3796 4.37753 20.8487 4.37753 23.3178 6.15527C25.7869 7.93302 28.256 11.4885 30.7251 9.71077C33.1942 7.93302 35.6633 0.822038 38.1324 2.0072C40.6015 3.19237 43.0705 12.6737 45.5396 16.2292C48.0087 19.7847 50.4778 17.4143 52.9469 17.4143C55.416 17.4143 57.8851 19.7847 60.3542 21.5624C62.8233 23.3401 65.2924 24.5253 67.7615 20.3772C70.2305 16.2292 72.6996 6.74786 75.1687 3.78495C77.6378 0.822038 80.1069 4.37753 82.576 7.34044C85.0451 10.3033 87.5142 12.6737 89.9833 14.4514C92.4524 16.2292 94.9215 17.4143 97.3906 19.1921C99.8596 20.9698 102.329 23.3401 104.798 23.9327C107.267 24.5253 109.736 23.3401 111.02 22.7476L112.205 22.155V29.266H111.02C109.736 29.266 107.267 29.266 104.798 29.266C102.329 29.266 99.8596 29.266 97.3906 29.266C94.9215 29.266 92.4524 29.266 89.9833 29.266C87.5142 29.266 85.0451 29.266 82.576 29.266C80.1069 29.266 77.6378 29.266 75.1687 29.266C72.6996 29.266 70.2305 29.266 67.7615 29.266C65.2924 29.266 62.8233 29.266 60.3542 29.266C57.8851 29.266 55.416 29.266 52.9469 29.266C50.4778 29.266 48.0087 29.266 45.5396 29.266C43.0705 29.266 40.6015 29.266 38.1324 29.266C35.6633 29.266 33.1942 29.266 30.7251 29.266C28.256 29.266 25.7869 29.266 23.3178 29.266C20.8487 29.266 18.3796 29.266 15.9105 29.266C13.4415 29.266 10.9724 29.266 8.50327 29.266C6.03418 29.266 3.56509 29.266 1.09599 29.266C-1.3731 29.266 -3.84219 29.266 -5.02735 29.266H-6.31128V15.044Z" fill="#64DFDF"/>
<path fill-rule="evenodd" clip-rule="evenodd" d="M-6.31128 19.3555L-5.02735 17.5778C-3.84219 15.8 -1.3731 12.2445 1.09599 13.4297C3.56509 14.6149 6.03418 20.5407 8.50327 20.5407C10.9724 20.5407 13.4415 14.6149 15.9105 11.652C18.3796 8.68905 20.8487 8.68905 23.3178 10.4668C25.7869 12.2445 28.256 15.8 30.7251 14.0223C33.1942 12.2445 35.6633 5.13356 38.1324 6.31872C40.6015 7.50389 43.0705 16.9852 45.5396 20.5407C48.0087 24.0962 50.4778 21.7259 52.9469 21.7259C55.416 21.7259 57.8851 24.0962 60.3542 25.8739C62.8233 27.6517 65.2924 28.8368 67.7615 24.6888C70.2305 20.5407 72.6996 11.0594 75.1687 8.09647C77.6378 5.13356 80.1069 8.68905 82.576 11.652C85.0451 14.6149 87.5142 16.9852 89.9833 18.7629C92.4524 20.5407 94.9215 21.7259 97.3906 23.5036C99.8596 25.2813 102.329 27.6517 104.798 28.2443C107.267 28.8368 109.736 27.6517 111.02 27.0591L112.205 26.4665V33.5775H111.02C109.736 33.5775 107.267 33.5775 104.798 33.5775C102.329 33.5775 99.8596 33.5775 97.3906 33.5775C94.9215 33.5775 92.4524 33.5775 89.9833 33.5775C87.5142 33.5775 85.0451 33.5775 82.576 33.5775C80.1069 33.5775 77.6378 33.5775 75.1687 33.5775C72.6996 33.5775 70.2305 33.5775 67.7615 33.5775C65.2924 33.5775 62.8233 33.5775 60.3542 33.5775C57.8851 33.5775 55.416 33.5775 52.9469 33.5775C50.4778 33.5775 48.0087 33.5775 45.5396 33.5775C43.0705 33.5775 40.6015 33.5775 38.1324 33.5775C35.6633 33.5775 33.1942 33.5775 30.7251 33.5775C28.256 33.5775 25.7869 33.5775 23.3178 33.5775C20.8487 33.5775 18.3796 33.5775 15.9105 33.5775C13.4415 33.5775 10.9724 33.5775 8.50327 33.5775C6.03418 33.5775 3.56509 33.5775 1.09599 33.5775C-1.3731 33.5775 -3.84219 33.5775 -5.02735 33.5775H-6.31128V19.3555Z" fill="#56CFE1"/>
<path fill-rule="evenodd" clip-rule="evenodd" d="M-6.31128 23.6673L-5.02735 21.8895C-3.84219 20.1118 -1.3731 16.5563 1.09599 17.7415C3.56509 18.9266 6.03418 24.8525 8.50327 24.8525C10.9724 24.8525 13.4415 18.9266 15.9105 15.9637C18.3796 13.0008 20.8487 13.0008 23.3178 14.7786C25.7869 16.5563 28.256 20.1118 30.7251 18.3341C33.1942 16.5563 35.6633 9.44533 38.1324 10.6305C40.6015 11.8157 43.0705 21.297 45.5396 24.8525C48.0087 28.408 50.4778 26.0376 52.9469 26.0376C55.416 26.0376 57.8851 28.408 60.3542 30.1857C62.8233 31.9634 65.2924 33.1486 67.7615 29.0005C70.2305 24.8525 72.6996 15.3711 75.1687 12.4082C77.6378 9.44533 80.1069 13.0008 82.576 15.9637C85.0451 18.9266 87.5142 21.297 89.9833 23.0747C92.4524 24.8525 94.9215 26.0376 97.3905 27.8154C99.8596 29.5931 102.329 31.9634 104.798 32.556C107.267 33.1486 109.736 31.9634 111.02 31.3709L112.205 30.7783V37.8893H111.02C109.736 37.8893 107.267 37.8893 104.798 37.8893C102.329 37.8893 99.8596 37.8893 97.3905 37.8893C94.9215 37.8893 92.4524 37.8893 89.9833 37.8893C87.5142 37.8893 85.0451 37.8893 82.576 37.8893C80.1069 37.8893 77.6378 37.8893 75.1687 37.8893C72.6996 37.8893 70.2305 37.8893 67.7615 37.8893C65.2924 37.8893 62.8233 37.8893 60.3542 37.8893C57.8851 37.8893 55.416 37.8893 52.9469 37.8893C50.4778 37.8893 48.0087 37.8893 45.5396 37.8893C43.0705 37.8893 40.6015 37.8893 38.1324 37.8893C35.6633 37.8893 33.1942 37.8893 30.7251 37.8893C28.256 37.8893 25.7869 37.8893 23.3178 37.8893C20.8487 37.8893 18.3796 37.8893 15.9105 37.8893C13.4415 37.8893 10.9724 37.8893 8.50327 37.8893C6.03418 37.8893 3.56509 37.8893 1.09599 37.8893C-1.3731 37.8893 -3.84219 37.8893 -5.02735 37.8893H-6.31128V23.6673Z" fill="#4EA8DE"/>
<path fill-rule="evenodd" clip-rule="evenodd" d="M-6.31128 27.9791L-5.02735 26.2013C-3.84219 24.4236 -1.3731 20.8681 1.09599 22.0532C3.56509 23.2384 6.03418 29.1642 8.50327 29.1642C10.9724 29.1642 13.4415 23.2384 15.9105 20.2755C18.3796 17.3126 20.8487 17.3126 23.3178 19.0903C25.7869 20.8681 28.256 24.4236 30.7251 22.6458C33.1942 20.8681 35.6633 13.7571 38.1324 14.9423C40.6015 16.1274 43.0705 25.6087 45.5396 29.1642C48.0087 32.7197 50.4778 30.3494 52.9469 30.3494C55.416 30.3494 57.8851 32.7197 60.3542 34.4975C62.8233 36.2752 65.2924 37.4604 67.7615 33.3123C70.2305 29.1642 72.6996 19.6829 75.1687 16.72C77.6378 13.7571 80.1069 17.3126 82.576 20.2755C85.0451 23.2384 87.5142 25.6087 89.9833 27.3865C92.4524 29.1642 94.9215 30.3494 97.3906 32.1271C99.8596 33.9049 102.329 36.2752 104.798 36.8678C107.267 37.4604 109.736 36.2752 111.02 35.6826L112.205 35.09V42.201H111.02C109.736 42.201 107.267 42.201 104.798 42.201C102.329 42.201 99.8596 42.201 97.3906 42.201C94.9215 42.201 92.4524 42.201 89.9833 42.201C87.5142 42.201 85.0451 42.201 82.576 42.201C80.1069 42.201 77.6378 42.201 75.1687 42.201C72.6996 42.201 70.2305 42.201 67.7615 42.201C65.2924 42.201 62.8233 42.201 60.3542 42.201C57.8851 42.201 55.416 42.201 52.9469 42.201C50.4778 42.201 48.0087 42.201 45.5396 42.201C43.0705 42.201 40.6015 42.201 38.1324 42.201C35.6633 42.201 33.1942 42.201 30.7251 42.201C28.256 42.201 25.7869 42.201 23.3178 42.201C20.8487 42.201 18.3796 42.201 15.9105 42.201C13.4415 42.201 10.9724 42.201 8.50327 42.201C6.03418 42.201 3.56509 42.201 1.09599 42.201C-1.3731 42.201 -3.84219 42.201 -5.02735 42.201H-6.31128V27.9791Z" fill="#5390D9"/>
<path fill-rule="evenodd" clip-rule="evenodd" d="M-6.31128 32.2908L-5.02735 30.5131C-3.84219 28.7353 -1.3731 25.1798 1.09599 26.365C3.56509 27.5502 6.03418 33.476 8.50327 33.476C10.9724 33.476 13.4415 27.5502 15.9105 24.5873C18.3796 21.6244 20.8487 21.6244 23.3178 23.4021C25.7869 25.1798 28.256 28.7353 30.7251 26.9576C33.1942 25.1798 35.6633 18.0689 38.1324 19.254C40.6015 20.4392 43.0705 29.9205 45.5396 33.476C48.0087 37.0315 50.4778 34.6612 52.9469 34.6612C55.416 34.6612 57.8851 37.0315 60.3542 38.8092C62.8233 40.587 65.2924 41.7721 67.7615 37.6241C70.2305 33.476 72.6996 23.9947 75.1687 21.0318C77.6378 18.0689 80.1069 21.6244 82.576 24.5873C85.0451 27.5502 87.5142 29.9205 89.9833 31.6982C92.4524 33.476 94.9215 34.6612 97.3906 36.4389C99.8596 38.2166 102.329 40.587 104.798 41.1796C107.267 41.7721 109.736 40.587 111.02 39.9944L112.205 39.4018V46.5128H111.02C109.736 46.5128 107.267 46.5128 104.798 46.5128C102.329 46.5128 99.8596 46.5128 97.3906 46.5128C94.9215 46.5128 92.4524 46.5128 89.9833 46.5128C87.5142 46.5128 85.0451 46.5128 82.576 46.5128C80.1069 46.5128 77.6378 46.5128 75.1687 46.5128C72.6996 46.5128 70.2305 46.5128 67.7615 46.5128C65.2924 46.5128 62.8233 46.5128 60.3542 46.5128C57.8851 46.5128 55.416 46.5128 52.9469 46.5128C50.4778 46.5128 48.0087 46.5128 45.5396 46.5128C43.0705 46.5128 40.6015 46.5128 38.1324 46.5128C35.6633 46.5128 33.1942 46.5128 30.7251 46.5128C28.256 46.5128 25.7869 46.5128 23.3178 46.5128C20.8487 46.5128 18.3796 46.5128 15.9105 46.5128C13.4415 46.5128 10.9724 46.5128 8.50327 46.5128C6.03418 46.5128 3.56509 46.5128 1.09599 46.5128C-1.3731 46.5128 -3.84219 46.5128 -5.02735 46.5128H-6.31128V32.2908Z" fill="#6930C3"/>
<path fill-rule="evenodd" clip-rule="evenodd" d="M-6.31128 36.6024L-5.02735 34.8246C-3.84219 33.0469 -1.3731 29.4914 1.09599 30.6765C3.56509 31.8617 6.03418 37.7875 8.50327 37.7875C10.9724 37.7875 13.4415 31.8617 15.9105 28.8988C18.3796 25.9359 20.8487 25.9359 23.3178 27.7136C25.7869 29.4914 28.256 33.0469 30.7251 31.2691C33.1942 29.4914 35.6633 22.3804 38.1324 23.5656C40.6015 24.7507 43.0705 34.232 45.5396 37.7875C48.0087 41.343 50.4778 38.9727 52.9469 38.9727C55.416 38.9727 57.8851 41.343 60.3542 43.1208C62.8233 44.8985 65.2924 46.0837 67.7615 41.9356C70.2305 37.7875 72.6996 28.3062 75.1687 25.3433C77.6378 22.3804 80.1069 25.9359 82.576 28.8988C85.0451 31.8617 87.5142 34.232 89.9833 36.0098C92.4524 37.7875 94.9215 38.9727 97.3906 40.7504C99.8596 42.5282 102.329 44.8985 104.798 45.4911C107.267 46.0837 109.736 44.8985 111.02 44.3059L112.205 43.7133V50.8243H111.02C109.736 50.8243 107.267 50.8243 104.798 50.8243C102.329 50.8243 99.8596 50.8243 97.3906 50.8243C94.9215 50.8243 92.4524 50.8243 89.9833 50.8243C87.5142 50.8243 85.0451 50.8243 82.576 50.8243C80.1069 50.8243 77.6378 50.8243 75.1687 50.8243C72.6996 50.8243 70.2305 50.8243 67.7615 50.8243C65.2924 50.8243 62.8233 50.8243 60.3542 50.8243C57.8851 50.8243 55.416 50.8243 52.9469 50.8243C50.4778 50.8243 48.0087 50.8243 45.5396 50.8243C43.0705 50.8243 40.6015 50.8243 38.1324 50.8243C35.6633 50.8243 33.1942 50.8243 30.7251 50.8243C28.256 50.8243 25.7869 50.8243 23.3178 50.8243C20.8487 50.8243 18.3796 50.8243 15.9105 50.8243C13.4415 50.8243 10.9724 50.8243 8.50327 50.8243C6.03418 50.8243 3.56509 50.8243 1.09599 50.8243C-1.3731 50.8243 -3.84219 50.8243 -5.02735 50.8243H-6.31128V36.6024Z" fill="#F72585"/>
</g>
</svg>
